<svg width="75" height="74" viewBox="0 0 75 74" fill="none" xmlns="http://www.w3.org/2000/svg">
<g filter="url(#filter0_d_1_64)">
<path d="M25.3502 41.4408C26.5066 47.9897 29.6556 53.9857 34.322 58.6361L35.5064 49.1663L33.4578 45.0691H41.6523L39.6037 49.1663L40.7869 58.6361C45.4535 53.9856 48.603 47.9894 49.7593 41.4408C61.8156 42.6652 70.3333 46.9567 70.3333 61.4588V65.556H4.77729V61.4588C4.77729 46.9572 13.2947 42.6656 25.3499 41.4408H25.3502Z" fill="#F4F2FF"/>
<path d="M37.5557 0C46.6076 0 53.9447 7.33715 53.9447 16.389C53.9447 30.9032 46.6076 40.9725 37.5557 40.9725C28.5039 40.9725 21.1667 30.9032 21.1667 16.389C21.1667 7.33715 28.5039 0 37.5557 0Z" fill="#F4F2FF"/>
</g>
<defs>
<filter id="filter0_d_1_64" x="0.77729" y="0" width="73.556" height="73.556" filterUnits="userSpaceOnUse" color-interpolation-filters="sRGB">
<feFlood flood-opacity="0" result="BackgroundImageFix"/>
<feColorMatrix in="SourceAlpha" type="matrix" values="0 0 0 0 0 0 0 0 0 0 0 0 0 0 0 0 0 0 127 0" result="hardAlpha"/>
<feOffset dy="4"/>
<feGaussianBlur stdDeviation="2"/>
<feComposite in2="hardAlpha" operator="out"/>
<feColorMatrix type="matrix" values="0 0 0 0 0 0 0 0 0 0 0 0 0 0 0 0 0 0 0.25 0"/>
<feBlend mode="normal" in2="BackgroundImageFix" result="effect1_dropShadow_1_64"/>
<feBlend mode="normal" in="SourceGraphic" in2="effect1_dropShadow_1_64" result="shape"/>
</filter>
</defs>
</svg>
