<svg width="40" height="45" viewBox="0 0 40 45" fill="none" xmlns="http://www.w3.org/2000/svg">
<g filter="url(#filter0_d_1_41)">
<circle opacity="0.3" cx="20" cy="20.2225" r="16" fill="#B0ACC5"/>
<g clip-path="url(#clip0_1_41)">
<path d="M19.999 20.2215C22.209 20.2215 23.999 18.4315 23.999 16.2215C23.999 14.0115 22.209 12.2215 19.999 12.2215C17.789 12.2215 15.999 14.0115 15.999 16.2215C15.999 18.4315 17.789 20.2215 19.999 20.2215ZM19.999 22.2215C17.329 22.2215 11.999 23.5615 11.999 26.2215V28.2215H27.999V26.2215C27.999 23.5615 22.669 22.2215 19.999 22.2215Z" fill="url(#paint0_linear_1_41)"/>
</g>
</g>
<defs>
<filter id="filter0_d_1_41" x="0" y="4.22249" width="40" height="40" filterUnits="userSpaceOnUse" color-interpolation-filters="sRGB">
<feFlood flood-opacity="0" result="BackgroundImageFix"/>
<feColorMatrix in="SourceAlpha" type="matrix" values="0 0 0 0 0 0 0 0 0 0 0 0 0 0 0 0 0 0 127 0" result="hardAlpha"/>
<feOffset dy="4"/>
<feGaussianBlur stdDeviation="2"/>
<feComposite in2="hardAlpha" operator="out"/>
<feColorMatrix type="matrix" values="0 0 0 0 0 0 0 0 0 0 0 0 0 0 0 0 0 0 0.25 0"/>
<feBlend mode="normal" in2="BackgroundImageFix" result="effect1_dropShadow_1_41"/>
<feBlend mode="normal" in="SourceGraphic" in2="effect1_dropShadow_1_41" result="shape"/>
</filter>
<linearGradient id="paint0_linear_1_41" x1="19.3716" y1="9.65009" x2="20.0917" y2="28.2362" gradientUnits="userSpaceOnUse">
<stop stop-color="#AFA5F9"/>
<stop offset="1" stop-color="#867DFD"/>
</linearGradient>
<clipPath id="clip0_1_41">
<rect width="24" height="24" fill="white" transform="translate(8 8.22249)"/>
</clipPath>
</defs>
</svg>
