<svg width="129" height="41" viewBox="0 0 129 41" fill="none" xmlns="http://www.w3.org/2000/svg">
<g filter="url(#filter0_d_1_49)">
<path d="M46.4961 15.2513C46.4961 14.0342 46.7262 12.9775 47.1865 12.0812C47.658 11.1739 48.3316 10.4712 49.2072 9.97329C50.0828 9.47536 51.1212 9.22639 52.3224 9.22639C53.5236 9.22639 54.562 9.47536 55.4377 9.97329C56.3133 10.4712 56.9869 11.1739 57.4584 12.0812C57.9411 12.9775 58.1824 14.0286 58.1824 15.2347C58.1824 16.463 57.9411 17.5307 57.4584 18.4381C56.9869 19.3344 56.3133 20.037 55.4377 20.546C54.562 21.0439 53.5236 21.2929 52.3224 21.2929C51.1212 21.2929 50.0828 21.0439 49.2072 20.546C48.3428 20.037 47.6748 19.3288 47.2033 18.4215C46.7318 17.5142 46.4961 16.4574 46.4961 15.2513ZM49.2409 15.2513C49.2409 16.4574 49.4935 17.4035 49.9986 18.0895C50.515 18.7645 51.2896 19.102 52.3224 19.102C53.3328 19.102 54.1018 18.7645 54.6294 18.0895C55.157 17.4035 55.4208 16.4574 55.4208 15.2513C55.4208 14.0342 55.157 13.0936 54.6294 12.4297C54.113 11.7548 53.344 11.4173 52.3224 11.4173C51.2896 11.4173 50.515 11.7548 49.9986 12.4297C49.4935 13.0936 49.2409 14.0342 49.2409 15.2513Z" fill="#201B3D"/>
<path d="M60.2355 21.1103V9.40897H62.1888L68.6382 17.492H68.1836V9.40897H70.6252V21.1103H68.6719L62.2394 13.0273H62.6772V21.1103H60.2355Z" fill="#201B3D"/>
<path d="M81.6678 24.2971C81.2973 24.1089 80.9212 23.8489 80.5395 23.517C80.1691 23.1961 79.8211 22.8309 79.4955 22.4215C79.1812 22.0232 78.9118 21.6082 78.6872 21.1767L80.7248 20.2804C81.0054 20.8447 81.3927 21.3593 81.8867 21.824C82.3806 22.2998 82.897 22.6871 83.4359 22.9858L81.6678 24.2971ZM72.6757 15.2513C72.6757 14.0342 72.9058 12.9775 73.3661 12.0812C73.8376 11.1739 74.5111 10.4712 75.3868 9.97329C76.2624 9.47536 77.3008 9.22639 78.502 9.22639C79.7032 9.22639 80.7416 9.47536 81.6172 9.97329C82.4929 10.4712 83.1664 11.1739 83.6379 12.0812C84.1207 12.9775 84.362 14.0286 84.362 15.2347C84.362 16.463 84.1207 17.5307 83.6379 18.4381C83.1664 19.3344 82.4929 20.037 81.6172 20.546C80.7416 21.0439 79.7032 21.2929 78.502 21.2929C77.3008 21.2929 76.2624 21.0439 75.3868 20.546C74.5224 20.037 73.8544 19.3288 73.3829 18.4215C72.9114 17.5142 72.6757 16.4574 72.6757 15.2513ZM75.4204 15.2513C75.4204 16.4574 75.673 17.4035 76.1782 18.0895C76.6946 18.7645 77.4692 19.102 78.502 19.102C79.5124 19.102 80.2813 18.7645 80.809 18.0895C81.3366 17.4035 81.6004 16.4574 81.6004 15.2513C81.6004 14.0342 81.3366 13.0936 80.809 12.4297C80.2926 11.7548 79.5236 11.4173 78.502 11.4173C77.4692 11.4173 76.6946 11.7548 76.1782 12.4297C75.673 13.0936 75.4204 14.0342 75.4204 15.2513Z" fill="#201B3D"/>
<path d="M91.5173 21.2929C89.7773 21.2929 88.4807 20.8669 87.6275 20.0149C86.7743 19.1629 86.3477 17.8959 86.3477 16.214V9.40897H88.9746V16.2306C88.9746 17.1711 89.1767 17.8848 89.5808 18.3717C89.9962 18.8586 90.6417 19.102 91.5173 19.102C92.3705 19.102 93.0048 18.8586 93.4202 18.3717C93.8468 17.8848 94.06 17.1711 94.06 16.2306V9.40897H96.6533V16.214C96.6533 17.8959 96.2211 19.1629 95.3567 20.0149C94.5035 20.8669 93.2237 21.2929 91.5173 21.2929Z" fill="#201B3D"/>
<path d="M98.9786 21.1103V9.40897H101.606V21.1103H98.9786Z" fill="#201B3D"/>
<path d="M106.755 21.1103V11.5169H102.983V9.40897H113.154V11.5169H109.382V21.1103H106.755Z" fill="#201B3D"/>
<path d="M117.711 21.1103V15.5501L118.249 17.0273L113.046 9.40897H116.077L119.344 14.4215H118.805L122.072 9.40897H125.002L119.815 17.0273L120.338 15.5501V21.1103H117.711Z" fill="#201B3D"/>
<path fill-rule="evenodd" clip-rule="evenodd" d="M26.2995 29.6962C31.4257 29.6962 35.5814 25.5962 35.5814 20.5384C35.5814 15.4807 31.4257 11.3806 26.2995 11.3806C21.1732 11.3806 17.0176 15.4807 17.0176 20.5384C17.0176 25.5962 21.1732 29.6962 26.2995 29.6962ZM26.2995 32.2225C32.8399 32.2225 38.1419 26.9914 38.1419 20.5384C38.1419 14.0855 32.8399 8.85433 26.2995 8.85433C19.7591 8.85433 14.457 14.0855 14.457 20.5384C14.457 26.9914 19.7591 32.2225 26.2995 32.2225Z" fill="#FAFAFA"/>
<path fill-rule="evenodd" clip-rule="evenodd" d="M24.404 8.36326C23.0001 5.06505 19.6954 2.74879 15.8424 2.74879C10.7162 2.74879 6.56053 6.84888 6.56053 11.9066C6.56053 16.2787 9.66589 19.9352 13.8192 20.8462C13.8417 21.7502 13.9629 22.6299 14.1726 23.4755C8.4229 22.6749 4 17.8003 4 11.9066C4 5.45364 9.30204 0.222492 15.8424 0.222492C21.0873 0.222492 25.5358 3.58651 27.0924 8.24696C26.8297 8.23068 26.5648 8.22242 26.2979 8.22242C25.6541 8.22242 25.0216 8.27051 24.404 8.36326ZM17.6633 20.8883C21.859 20.0649 25.0357 16.4511 25.1225 12.0901C25.5069 12.0385 25.8993 12.0119 26.2979 12.0119C26.7694 12.0119 27.232 12.0491 27.6829 12.1208C27.5813 17.7012 23.5144 22.3264 18.1443 23.3701C17.8655 22.5887 17.6988 21.7552 17.6633 20.8883Z" fill="url(#paint0_linear_1_49)"/>
<path fill-rule="evenodd" clip-rule="evenodd" d="M26.2995 29.6962C31.4257 29.6962 35.5814 25.5962 35.5814 20.5384C35.5814 15.4807 31.4257 11.3806 26.2995 11.3806C21.1732 11.3806 17.0176 15.4807 17.0176 20.5384C17.0176 25.5962 21.1732 29.6962 26.2995 29.6962ZM26.1928 32.2225L26.1937 32.2221C19.702 32.166 14.457 26.9566 14.457 20.5384C14.457 14.0855 19.7591 8.85433 26.2995 8.85433C32.8399 8.85433 38.1419 14.0855 38.1419 20.5384C38.1419 23.0941 37.3103 25.4582 35.8994 27.3815L35.9015 27.3805C35.2613 31.591 37.5018 31.9068 40.169 32.2225H26.2995H26.1928ZM38.8887 30.7489C39.8904 30.7489 40.7024 29.9477 40.7024 28.9594C40.7024 27.9711 39.8904 27.17 38.8887 27.17C37.8871 27.17 37.075 27.9711 37.075 28.9594C37.075 29.9477 37.8871 30.7489 38.8887 30.7489Z" fill="url(#paint1_linear_1_49)"/>
<path d="M35.7952 28.4331C35.7952 27.9067 36.1152 27.0646 36.3286 26.7489L35.4751 27.2752L35.2617 28.4331H35.7952Z" fill="#FAFAFA"/>
<path fill-rule="evenodd" clip-rule="evenodd" d="M16.9566 12.2594L15.8282 11.8909L15.6914 13.8829C16.0651 13.3119 16.4876 12.7686 16.9566 12.2594ZM21.2155 13.6499L23.932 14.5369C23.3371 16.3104 22.1615 17.8385 20.59 18.8807C19.6754 19.4872 18.657 19.9091 17.593 20.1309C17.7158 18.1298 18.5428 16.2237 19.945 14.7498C20.3343 14.3406 20.7602 13.9729 21.2155 13.6499Z" fill="#5D9EFF"/>
<g filter="url(#filter1_d_1_49)">
<path fill-rule="evenodd" clip-rule="evenodd" d="M21.6561 5.74143C20.8375 4.98582 19.8761 4.39668 18.8268 4.00765L15.8242 11.8914L16.9185 12.2971C16.9755 12.2347 17.0332 12.1728 17.0916 12.1114C18.8551 10.2577 21.1364 8.9932 23.6192 8.45893C23.612 8.4431 23.6048 8.42728 23.5975 8.41149C23.1344 7.40433 22.4747 6.49705 21.6561 5.74143ZM24.3526 12.2482C23.1345 12.525 21.9892 13.0569 20.9955 13.8086L23.8148 14.8538C24.1333 14.0176 24.3144 13.138 24.3526 12.2482Z" fill="#AFA5F9"/>
</g>
<path fill-rule="evenodd" clip-rule="evenodd" d="M7.29407 11.603C7.23189 13.3929 7.74965 15.1557 8.77214 16.6355L15.8251 11.8915L18.843 4.01346C17.145 3.38029 15.2866 3.29765 13.5378 3.77755C11.789 4.25745 10.2407 5.2749 9.11794 6.68213C7.99514 8.08937 7.35626 9.8131 7.29407 11.603Z" fill="#867DFD"/>
<path fill-rule="evenodd" clip-rule="evenodd" d="M15.6815 13.8975L15.8278 11.8909L8.73047 16.5701C9.45281 17.6367 10.4125 18.5263 11.5364 19.1712C12.2107 19.5581 12.9333 19.8507 13.6836 20.0429C13.7923 17.8501 14.4851 15.7314 15.6815 13.8975Z" fill="#78AEFF"/>
</g>
<defs>
<filter id="filter0_d_1_49" x="0" y="0.222492" width="129.002" height="40" filterUnits="userSpaceOnUse" color-interpolation-filters="sRGB">
<feFlood flood-opacity="0" result="BackgroundImageFix"/>
<feColorMatrix in="SourceAlpha" type="matrix" values="0 0 0 0 0 0 0 0 0 0 0 0 0 0 0 0 0 0 127 0" result="hardAlpha"/>
<feOffset dy="4"/>
<feGaussianBlur stdDeviation="2"/>
<feComposite in2="hardAlpha" operator="out"/>
<feColorMatrix type="matrix" values="0 0 0 0 0 0 0 0 0 0 0 0 0 0 0 0 0 0 0.25 0"/>
<feBlend mode="normal" in2="BackgroundImageFix" result="effect1_dropShadow_1_49"/>
<feBlend mode="normal" in="SourceGraphic" in2="effect1_dropShadow_1_49" result="shape"/>
</filter>
<filter id="filter1_d_1_49" x="12.8242" y="1.00765" width="16.5284" height="18.8461" filterUnits="userSpaceOnUse" color-interpolation-filters="sRGB">
<feFlood flood-opacity="0" result="BackgroundImageFix"/>
<feColorMatrix in="SourceAlpha" type="matrix" values="0 0 0 0 0 0 0 0 0 0 0 0 0 0 0 0 0 0 127 0" result="hardAlpha"/>
<feOffset dx="1" dy="1"/>
<feGaussianBlur stdDeviation="2"/>
<feColorMatrix type="matrix" values="0 0 0 0 0.0053125 0 0 0 0 0.2125 0 0 0 0 0.0133586 0 0 0 0.05 0"/>
<feBlend mode="normal" in2="BackgroundImageFix" result="effect1_dropShadow_1_49"/>
<feBlend mode="normal" in="SourceGraphic" in2="effect1_dropShadow_1_49" result="shape"/>
</filter>
<linearGradient id="paint0_linear_1_49" x1="-3.58995" y1="-9.71605" x2="41.3673" y2="31.018" gradientUnits="userSpaceOnUse">
<stop stop-color="#3E6ACA"/>
<stop offset="1" stop-color="#6620DA"/>
</linearGradient>
<linearGradient id="paint1_linear_1_49" x1="6.04585" y1="-1.13347" x2="51.4459" y2="44.2278" gradientUnits="userSpaceOnUse">
<stop stop-color="#3E6ACA"/>
<stop offset="1" stop-color="#6620DA"/>
</linearGradient>
</defs>
</svg>
