<svg width="96" height="96" viewBox="0 0 96 96" fill="none" xmlns="http://www.w3.org/2000/svg">
<g filter="url(#filter0_d_1_67)">
<path fill-rule="evenodd" clip-rule="evenodd" d="M62.6519 67.4311L67.8244 58.4707L60.4128 49.0216C60.4128 49.0216 68.3705 35.2387 70.3615 31.7909C72.3516 28.3434 75.414 16.6732 68.7619 8.69247C58.5249 6.92209 49.9492 15.4096 47.9582 18.858C45.9672 22.3047 38.0106 36.0876 38.0106 36.0876L26.1208 34.3936L20.9483 43.3541L40.0804 54.4002L45.3178 45.329C43.6056 43.3838 43.2348 40.4884 44.6023 38.1191C46.317 35.1491 50.1147 34.1312 53.0847 35.8468C56.0547 37.5615 57.0726 41.3592 55.3573 44.3289C53.9895 46.6978 51.2979 47.8251 48.7565 47.314L43.5182 56.3861L62.6504 67.4322L62.6519 67.4311ZM32.0679 84.9529L35.5795 86.9806L36.898 84.6982L33.3854 82.6696L32.0679 84.9529ZM39.0968 72.7775L42.6085 74.8053L37.7083 83.293L34.1967 81.2653L39.0968 72.7775ZM20.008 77.9913L23.5205 80.0199L24.8381 77.7366L21.3264 75.7089L20.008 77.9913ZM27.0382 65.8162L30.5498 67.844L25.6488 76.3326L22.1371 74.3049L27.0382 65.8162ZM24.1789 84.6933L27.6906 86.721L29.0081 84.4377L25.4965 82.41L24.1789 84.6933ZM33.0677 69.2976L36.5794 71.3253L29.8197 83.033L26.308 81.0053L33.0677 69.2976ZM31.0444 54.3224C37.5485 58.0777 44.0545 61.8339 50.559 65.5895L44.6264 70.89C39.5589 67.9641 34.4883 65.0377 29.4197 62.1105L31.0443 54.3232L31.0444 54.3224Z" fill="#F4F2FF"/>
</g>
<defs>
<filter id="filter0_d_1_67" x="16.008" y="8.45239" width="60.817" height="86.5283" filterUnits="userSpaceOnUse" color-interpolation-filters="sRGB">
<feFlood flood-opacity="0" result="BackgroundImageFix"/>
<feColorMatrix in="SourceAlpha" type="matrix" values="0 0 0 0 0 0 0 0 0 0 0 0 0 0 0 0 0 0 127 0" result="hardAlpha"/>
<feOffset dy="4"/>
<feGaussianBlur stdDeviation="2"/>
<feComposite in2="hardAlpha" operator="out"/>
<feColorMatrix type="matrix" values="0 0 0 0 0 0 0 0 0 0 0 0 0 0 0 0 0 0 0.25 0"/>
<feBlend mode="normal" in2="BackgroundImageFix" result="effect1_dropShadow_1_67"/>
<feBlend mode="normal" in="SourceGraphic" in2="effect1_dropShadow_1_67" result="shape"/>
</filter>
</defs>
</svg>
